<svg xmlns:xlink="http://www.w3.org/1999/xlink" xmlns="http://www.w3.org/2000/svg" viewBox="0 0 500 500" width="500" height="500" preserveAspectRatio="xMidYMid meet" style="width: 100%; height: 100%; transform: translate3d(0px, 0px, 0px);"><defs><clipPath id="__lottie_element_10"><rect width="500" height="500" x="0" y="0"></rect></clipPath></defs><g clip-path="url(#__lottie_element_10)"><g transform="matrix(2.869570016860962,0,0,2.869570016860962,-8.00042724609375,158.08676147460938)" opacity="1" style="display: block;"><g opacity="1" transform="matrix(1,0,0,1,0,0)"><g opacity="1" transform="matrix(1,0,0,1,0,0)"><path stroke-linecap="butt" stroke-linejoin="miter" fill-opacity="0" stroke-miterlimit="10" stroke="#000000" stroke-opacity="1" stroke-width="4px" d="M0 0"></path></g><g opacity="1" transform="matrix(1,0,0,1,0,0)"><path stroke-linecap="butt" stroke-linejoin="miter" fill-opacity="0" stroke-miterlimit="10" stroke="#000000" stroke-opacity="1" stroke-width="4px" d=" M29,38 C29,38 29,38 29,38"></path></g><g opacity="1" transform="matrix(1,0,0,1,0,0)"><path stroke-linecap="butt" stroke-linejoin="miter" fill-opacity="0" stroke-miterlimit="10" stroke="#000000" stroke-opacity="1" stroke-width="4px" d=" M39,50 C39,50 49.45399856567383,50 52.29499816894531,50"></path></g></g><g opacity="1" transform="matrix(1,0,0,1,0,0)"><g opacity="1" transform="matrix(1,0,0,1,103.11470031738281,37.5)"><path fill="rgb(0,0,0)" fill-opacity="1" d=" M-43,-16.784000396728516 C-43,-16.784000396728516 -0.9049999713897705,6.017000198364258 -0.9049999713897705,6.017000198364258 C-0.9049999713897705,6.017000198364258 1.0410000085830688,7.071000099182129 1.0410000085830688,7.071000099182129 C1.0410000085830688,7.071000099182129 2.9679999351501465,5.98199987411499 2.9679999351501465,5.98199987411499 C2.9679999351501465,5.98199987411499 43,-16.645000457763672 43,-16.645000457763672 C43,-16.645000457763672 43,19.5 43,19.5 C43,19.5 -43,19.5 -43,19.5 C-43,19.5 -43,-16.784000396728516 -43,-16.784000396728516z M47,-23.5 C47,-23.5 1,2.5 1,2.5 C1,2.5 -47,-23.5 -47,-23.5 C-47,-23.5 -47,23.5 -47,23.5 C-47,23.5 47,23.5 47,23.5 C47,23.5 47,-23.5 47,-23.5z"></path></g><g opacity="1" transform="matrix(1,0,0,1,-9.885298728942871,0)"><path stroke-linecap="butt" stroke-linejoin="miter" fill-opacity="0" stroke-miterlimit="10" stroke="#000000" stroke-opacity="1" stroke-width="4px" d=" M160,16 C160,16 66,16 66,16"></path></g></g><g opacity="1" transform="matrix(1,0,0,1,0,0)"><g opacity="1" transform="matrix(1,0,0,1,0,0)"><path stroke-linecap="butt" stroke-linejoin="miter" fill-opacity="0" stroke-miterlimit="10" stroke="#000000" stroke-opacity="1" stroke-width="4px" d="M0 0"></path></g><g opacity="1" transform="matrix(1,0,0,1,0.3479999899864197,0)"><path stroke-linecap="butt" stroke-linejoin="miter" fill-opacity="0" stroke-miterlimit="10" stroke="#000000" stroke-opacity="1" stroke-width="4px" d="M0 0"></path></g><g opacity="1" transform="matrix(1,0,0,1,0,0)"><path stroke-linecap="butt" stroke-linejoin="miter" fill-opacity="0" stroke-miterlimit="10" stroke="#000000" stroke-opacity="1" stroke-width="4px" d="M0 0"></path></g></g></g></g></svg>